<svg class="svgicon" id="svg39" preserveAspectRatio="xMidYMid meet" xmlns="http://www.w3.org/2000/svg" viewBox="0 0 60 60"><rect x="0" y="0" width="60" height="60" style="fill: transparent" rx="0%" ry="0%"></rect><g transform="scale(1) translate(0, 0)"><path fill="#105d86" d="M16.406,9.17c0.006-0.001,0.012-0.002,0.02-0.002c0.012,0.031,0.025,0.07,0.039,0.119 c0.01,0.029,0.02,0.059,0.029,0.087l4.076,11.014c0.012,0.033,0.021,0.069,0.027,0.104c-0.582,0.396-0.809,1.167-0.502,1.827 c0.248,0.533,0.777,0.847,1.33,0.847c0.207,0,0.416-0.044,0.617-0.137c1.494-0.695,1.766-2.386,1.268-3.676L19.258,8.396 c-0.475-1.516-1.572-2.277-3.104-2.146c-0.805,0.069-1.402,0.778-1.334,1.585C14.891,8.641,15.584,9.231,16.406,9.17z"></path><path fill="#105d86" d="M31.947,42.234c-0.273-0.276-0.646-0.434-1.037-0.435h-0.004c-0.389,0-0.762,0.155-1.035,0.43 c-0.254,0.253-0.447,0.474-0.627,0.681c-0.307,0.351-0.49,0.562-0.938,0.86c-0.326,0.22-0.781,0.057-1.037-0.324L16.207,26.78 c-0.293-0.438-0.236-1.075,0.111-1.309c0.434-0.288,0.492-0.309,0.814-0.423c0.229-0.082,0.527-0.188,1.012-0.394 c0.729-0.309,1.08-1.141,0.793-1.879L13.346,8.407c-0.146-0.376-0.441-0.675-0.814-0.826c-0.375-0.152-0.793-0.144-1.16,0.025 C9.459,8.481,7.797,9.61,6.273,11.069C4.672,12.64,3,14.943,2.385,16.428c-0.088,0.212-0.125,0.441-0.107,0.67 c0.453,6.069,4.518,15.775,10.117,24.153c5.51,8.249,13.094,15.895,18.443,18.593C31.041,59.946,31.268,60,31.496,60h0.002 c2.102-0.002,4.863-1.084,5.967-1.555c2.039-0.896,4.146-2.178,5.242-3.189c0.293-0.27,0.463-0.646,0.473-1.044 c0.008-0.397-0.145-0.781-0.424-1.063L31.947,42.234z M36.301,55.757c-1.713,0.73-3.379,1.212-4.473,1.299 c-4.859-2.612-11.938-9.858-16.998-17.433c-5.145-7.697-9.045-16.813-9.6-22.376c0.525-1.047,1.76-2.777,3.082-4.073 c0.893-0.854,1.848-1.577,2.895-2.187l4.469,11.483c-0.264,0.115-0.539,0.269-0.984,0.565c-1.688,1.131-2.109,3.59-0.924,5.367 l11.064,16.666c0.723,1.085,1.9,1.732,3.146,1.732c0.695,0,1.371-0.205,1.955-0.594c0.443-0.296,0.758-0.565,1.014-0.82 l8.551,8.636C38.637,54.592,37.502,55.229,36.301,55.757z"></path><path fill="#105d86" d="M45.549,48.285l-8.609-8.454c-0.984-0.932-2.688-1.324-3.906-0.211c-0.598,0.545-0.641,1.472-0.094,2.069 c0.5,0.549,1.322,0.628,1.916,0.217c0.021,0.013,0.039,0.024,0.049,0.034l8.49,8.335c0.031,0.089,0.043,0.276-0.031,0.41 c-0.391,0.709-0.133,1.6,0.574,1.991c0.225,0.123,0.467,0.183,0.707,0.183c0.516,0,1.018-0.274,1.285-0.758 c0.645-1.169,0.527-2.726-0.275-3.702C45.621,48.359,45.586,48.321,45.549,48.285z"></path><path fill="#105d86" d="M25.625,17.722c9.357,1.752,15.543,10.79,13.791,20.147c-0.148,0.795,0.375,1.56,1.17,1.709 c0.092,0.017,0.182,0.025,0.271,0.025c0.691,0,1.307-0.491,1.439-1.196c0.992-5.302-0.139-10.673-3.186-15.124 c-3.047-4.45-7.645-7.449-12.947-8.442c-0.795-0.146-1.561,0.376-1.711,1.171C24.305,16.807,24.83,17.572,25.625,17.722z"></path><path fill="#105d86" d="M27.594,7.209c-0.799-0.146-1.561,0.375-1.709,1.17c-0.148,0.796,0.375,1.561,1.17,1.71 c6.572,1.23,12.27,4.946,16.047,10.463s5.18,12.175,3.947,18.746c-0.148,0.795,0.375,1.561,1.17,1.709 c0.092,0.018,0.184,0.026,0.271,0.026c0.691,0,1.307-0.492,1.439-1.196c1.375-7.341-0.191-14.777-4.41-20.939 C41.301,12.734,34.936,8.583,27.594,7.209z"></path><path fill="#105d86" d="M51.551,14.769C46.229,6.995,38.199,1.759,28.939,0.024C28.145-0.121,27.379,0.4,27.23,1.195 c-0.15,0.795,0.375,1.561,1.17,1.71c8.49,1.59,15.854,6.391,20.732,13.519s6.691,15.729,5.1,24.22 c-0.148,0.795,0.377,1.561,1.172,1.709c0.09,0.017,0.182,0.025,0.271,0.025c0.691,0,1.307-0.491,1.438-1.195 C58.848,31.923,56.871,22.542,51.551,14.769z"></path></g></svg>