<svg class="svgicon" id="svg40" preserveAspectRatio="xMidYMid meet" xmlns="http://www.w3.org/2000/svg" viewBox="0 0 60 60"><rect x="0" y="0" width="60" height="60" style="fill: transparent" rx="0%" ry="0%"></rect><g transform="scale(1) translate(0, 0)"><path fill="#105d86" d="M52.777,28.855c0-0.211-0.085-0.402-0.222-0.543l-5.142-7.07c-0.146-0.201-0.38-0.32-0.628-0.32h-9.27 c-0.429,0-0.776,0.348-0.776,0.777v7.156c0,0.428,0.348,0.775,0.776,0.775h14.475c0.004,0.002,0.008,0.002,0.01,0 C52.43,29.631,52.777,29.283,52.777,28.855z M38.292,28.08v-5.605h8.1l4.076,5.605H38.292z"></path><path fill="#105d86" d="M46.33,35.889c-1.274,0-2.474,0.496-3.376,1.398c-0.901,0.902-1.397,2.102-1.397,3.375 s0.496,2.473,1.398,3.377c0.901,0.9,2.101,1.396,3.375,1.396c1.275,0,2.474-0.496,3.376-1.396c0.901-0.902,1.397-2.102,1.397-3.377 s-0.496-2.475-1.397-3.377C48.804,36.385,47.605,35.889,46.33,35.889z M48.243,42.574c-0.511,0.512-1.19,0.793-1.913,0.793 s-1.401-0.281-1.912-0.791c-0.511-0.514-0.792-1.191-0.792-1.914c0-0.721,0.281-1.402,0.792-1.912 c0.511-0.512,1.189-0.793,1.912-0.793s1.402,0.281,1.912,0.791c0.511,0.512,0.792,1.191,0.792,1.914S48.753,42.064,48.243,42.574z"></path><path fill="#105d86" d="M58.448,33.75h-0.531v-5.525c0-0.328-0.104-0.648-0.297-0.914l-7.592-10.438 c-0.292-0.401-0.758-0.64-1.255-0.64H33.967v-0.634c0-0.571-0.463-1.034-1.034-1.034H3.002c-0.571,0-1.034,0.463-1.034,1.034 v19.575H1.034C0.463,35.174,0,35.637,0,36.209v6.162c0,0.57,0.463,1.035,1.034,1.035h1.681c0.092,0.025,0.188,0.039,0.287,0.039 h2.424c0.571,0,1.034-0.463,1.034-1.033c0-0.572-0.463-1.035-1.034-1.035H3.29c-0.092-0.027-0.188-0.041-0.288-0.041H2.069v-4.094 h0.933c0.571,0,1.035-0.463,1.035-1.033V16.633h27.86v24.744H20.329c-0.571,0-1.034,0.463-1.034,1.035 c0,0.57,0.463,1.033,1.034,1.033h12.122c0.284,0.316,0.691,0.518,1.149,0.518h5.277c0.857,0,1.552-0.693,1.552-1.551 s-0.694-1.553-1.552-1.553h-3.726V19.337h12.831l6.829,9.391v6.574c0,0.857,0.695,1.551,1.552,1.551h0.532v4.006h-3.114 c-0.857,0-1.552,0.695-1.552,1.553s0.694,1.551,1.552,1.551h4.666c0.857,0,1.552-0.693,1.552-1.551v-7.109 C60,34.445,59.306,33.75,58.448,33.75z"></path><path fill="#105d86" d="M12.878,35.889c-1.274,0-2.474,0.496-3.377,1.396c0,0-0.001,0-0.002,0.002 c-0.899,0.902-1.395,2.1-1.395,3.375s0.495,2.475,1.396,3.377c0.903,0.9,2.103,1.396,3.377,1.396c1.275,0,2.474-0.496,3.375-1.396 c0.9-0.902,1.396-2.102,1.396-3.377s-0.496-2.475-1.396-3.377C15.352,36.385,14.153,35.889,12.878,35.889z M14.79,42.574 c-0.511,0.512-1.189,0.793-1.912,0.793s-1.403-0.283-1.914-0.791c-0.51-0.512-0.791-1.191-0.791-1.914s0.281-1.402,0.791-1.912 c0.512-0.512,1.191-0.793,1.914-0.793s1.401,0.281,1.911,0.791c0.511,0.512,0.792,1.191,0.792,1.914S15.3,42.064,14.79,42.574z"></path></g></svg>