<svg class="svgicon" id="svg42" preserveAspectRatio="xMidYMid meet" xmlns="http://www.w3.org/2000/svg" viewBox="0 0 60 60"><rect x="0" y="0" width="60" height="60" style="fill: transparent" rx="0%" ry="0%"></rect><g transform="scale(1) translate(0, 0)"><path fill="#105d86" class="st0" d="M30.021,3.516c-4.068,0-9.188-1.732-9.404-1.806c-0.392-0.134-0.602-0.56-0.468-0.952 c0.134-0.392,0.561-0.602,0.952-0.468c0.051,0.018,5.104,1.726,8.92,1.726c3.814,0,8.867-1.708,8.918-1.726 c0.393-0.134,0.818,0.075,0.952,0.468c0.134,0.392-0.076,0.818-0.468,0.952C39.207,1.784,34.087,3.516,30.021,3.516z"></path><path fill="#105d86" class="st0" d="M33.75,57.509h-7.531c-0.414,0-0.75-0.336-0.75-0.75s0.336-0.75,0.75-0.75h7.531 c0.414,0,0.75,0.336,0.75,0.75S34.164,57.509,33.75,57.509z"></path><path fill="#105d86" class="st0" d="M30.021,14.272c-0.607,0-0.884-0.539-1.106-0.971c-0.029-0.056-0.057-0.113-0.084-0.165 c-7.438-1.058-8.668-11.602-8.718-12.056c-0.044-0.412,0.253-0.781,0.665-0.826c0.409-0.051,0.781,0.252,0.826,0.664 c0.012,0.101,1.181,10.057,7.661,10.761c0.345,0.037,0.566,0.246,0.738,0.501c0.166-0.254,0.385-0.461,0.729-0.497 c6.529-0.668,7.692-10.664,7.704-10.765c0.044-0.413,0.419-0.713,0.826-0.665c0.412,0.045,0.709,0.415,0.664,0.827 c-0.049,0.456-1.286,11.03-8.748,12.06c-0.023,0.049-0.048,0.101-0.073,0.153C30.892,13.729,30.628,14.272,30.021,14.272z"></path><path fill="#105d86" class="st0" d="M30.009,18.014c-0.628,0-1.14-0.511-1.14-1.138c0-0.628,0.512-1.14,1.14-1.14s1.14,0.511,1.14,1.14 C31.148,17.503,30.637,18.014,30.009,18.014z M30.009,16.514c-0.198,0-0.36,0.162-0.36,0.362c0,0.199,0.162,0.36,0.36,0.36 s0.36-0.162,0.36-0.36C30.369,16.676,30.207,16.514,30.009,16.514z"></path><path fill="#105d86" class="st0" d="M30.009,21.847c-0.628,0-1.14-0.511-1.14-1.139s0.512-1.139,1.14-1.139s1.14,0.511,1.14,1.139 S30.637,21.847,30.009,21.847z M30.009,20.347c-0.198,0-0.36,0.162-0.36,0.361c0,0.199,0.162,0.361,0.36,0.361 s0.36-0.162,0.36-0.361C30.369,20.509,30.207,20.347,30.009,20.347z"></path><path fill="#105d86" class="st0" d="M39.864,59.75h-5.839c-0.386,0-0.709-0.292-0.746-0.677L29.887,24.59c-0.022-0.228,0.061-0.453,0.225-0.612 c8.448-8.176,8.321-22.819,8.319-22.966c-0.004-0.238,0.106-0.464,0.296-0.608c0.188-0.145,0.435-0.19,0.664-0.123 c0.861,0.251,8.453,2.542,9.964,5.524c4.725,9.333,7.074,15.342,7.855,20.094c0.722,4.363-0.505,25.214-0.557,26.1 c-0.021,0.345-0.274,0.632-0.615,0.693c-0.042,0.008-0.426,0.075-0.997,0.075c-0.777,0-1.509-0.12-2.177-0.356 c-1.545-0.545-2.115-1.202-2.214-1.328c-0.101-0.128-0.156-0.285-0.159-0.448c-0.106-5.646-0.49-20.742-0.979-22.772 c-0.367-1.531-2.411-4.915-3.892-7.206l-1.878,14.787l3.65,20.621c0.008,0.043,0.012,0.087,0.012,0.131 C47.404,59.75,41.927,59.75,39.864,59.75z M34.705,58.25h5.159c4.006,0,5.983-0.653,6.039-1.997l-3.658-20.662 c-0.014-0.075-0.016-0.15-0.006-0.226l2.147-16.902c0.039-0.309,0.266-0.561,0.568-0.634c0.302-0.074,0.619,0.048,0.795,0.306 c0.187,0.273,4.583,6.717,5.221,9.375c0.592,2.457,0.961,20.097,1.015,22.78c0.205,0.161,0.633,0.441,1.379,0.705 c0.711,0.251,1.403,0.279,1.828,0.268c0.205-3.62,1.164-21.337,0.537-25.122c-0.755-4.592-3.062-10.472-7.713-19.66 c-0.906-1.79-5.52-3.618-8.1-4.466C39.802,5.569,38.85,17.357,31.414,24.8L34.705,58.25z"></path><path fill="#105d86" class="st0" d="M30.634,25.267c-0.282,0-0.553-0.16-0.681-0.433c-0.175-0.375-0.013-0.821,0.362-0.997 c0.063-0.029,6.33-3.007,9.15-8.335c1.396-2.634,3.389-11.354,3.404-12.633c-0.068-0.178-0.069-0.381,0.013-0.57 c0.166-0.379,0.61-0.551,0.987-0.387c0.191,0.083,0.368,0.283,0.438,0.48c0.409,1.171-2.154,11.24-3.516,13.812 c-3.061,5.78-9.566,8.864-9.842,8.992C30.848,25.245,30.739,25.267,30.634,25.267z"></path><path fill="#105d86" class="st0" d="M25.975,59.75h-5.837c-2.062,0-7.542,0-7.542-3.556c0-0.044,0.004-0.087,0.012-0.131l3.65-20.621 l-1.877-14.788c-1.48,2.292-3.526,5.675-3.893,7.206c-0.487,2.031-0.871,17.128-0.978,22.773 c-0.003,0.164-0.06,0.321-0.161,0.45c-0.099,0.126-0.671,0.782-2.215,1.326c-0.667,0.236-1.399,0.356-2.176,0.356 c-0.571,0-0.955-0.067-0.997-0.075c-0.341-0.062-0.595-0.348-0.615-0.693c-0.052-0.886-1.276-21.736-0.557-26.1 c0.785-4.759,3.135-10.768,7.857-20.093c1.512-2.983,9.103-5.273,9.964-5.524c0.225-0.068,0.475-0.021,0.664,0.123 c0.189,0.144,0.299,0.37,0.296,0.608c-0.002,0.147-0.118,14.801,8.317,22.967c0.165,0.159,0.247,0.385,0.225,0.612 l-3.393,34.483C26.684,59.458,26.36,59.75,25.975,59.75z M14.097,56.253c0.056,1.343,2.034,1.997,6.041,1.997h5.157l3.291-33.45 C21.152,17.357,20.2,5.569,20.085,2.016c-2.58,0.849-7.192,2.677-8.1,4.466c-4.649,9.181-6.957,15.061-7.715,19.66 c-0.625,3.786,0.332,21.502,0.537,25.122c0.426,0.012,1.117-0.017,1.827-0.268c0.742-0.262,1.171-0.542,1.382-0.707 c0.054-2.69,0.424-20.321,1.013-22.778c0.637-2.658,5.036-9.103,5.223-9.376c0.177-0.257,0.493-0.378,0.795-0.305 c0.303,0.073,0.529,0.326,0.568,0.635l2.146,16.902c0.01,0.075,0.008,0.15-0.006,0.225L14.097,56.253z"></path><path fill="#105d86" class="st0" d="M14.884,19.309c-0.018,0-0.034,0-0.052-0.002c-0.413-0.027-0.726-0.385-0.697-0.798 c0.001-0.018,0.118-1.778,0.077-3.015c-0.039-1.226-0.539-4.2-0.544-4.23c-0.069-0.408,0.206-0.795,0.614-0.864 c0.397-0.066,0.795,0.206,0.864,0.615c0.021,0.126,0.521,3.105,0.565,4.431c0.042,1.313-0.076,3.09-0.081,3.165 C15.604,19.005,15.274,19.309,14.884,19.309z"></path><path fill="#105d86" class="st0" d="M45.155,19.309c-0.391,0-0.72-0.303-0.747-0.699c-0.005-0.075-0.125-1.852-0.083-3.166 c0.046-1.326,0.546-4.305,0.567-4.431c0.068-0.409,0.453-0.678,0.864-0.615c0.408,0.069,0.684,0.456,0.614,0.864 c-0.005,0.03-0.505,3.006-0.546,4.231c-0.041,1.236,0.078,2.996,0.079,3.013c0.028,0.414-0.283,0.771-0.697,0.799 C45.19,19.308,45.173,19.309,45.155,19.309z"></path><path fill="#105d86" class="st0" d="M29.28,25.292c-0.105,0-0.214-0.022-0.316-0.07c-0.275-0.128-6.781-3.212-9.842-8.992 c-1.534-2.901-3.421-12.992-3.5-13.42c-0.076-0.407,0.193-0.799,0.601-0.875c0.4-0.075,0.798,0.193,0.874,0.6 c0.02,0.103,1.924,10.294,3.352,12.993c2.82,5.327,9.087,8.305,9.15,8.334c0.375,0.176,0.537,0.622,0.362,0.997 C29.833,25.132,29.562,25.292,29.28,25.292z"></path></g></svg>