<svg class="svgicon" id="svg51" preserveAspectRatio="xMidYMid meet" xmlns="http://www.w3.org/2000/svg" viewBox="0 0 60 60"><rect x="0.8999999999999999" y="0.8999999999999999" width="58.2" height="58.2" style="stroke: #f7941d; fill: none; stroke-alignment: inside; stroke-width: 1.7999999999999998" rx="29.1" ry="29.1"></rect><g transform="scale(0.45) translate(36.66666666666667, 36.66666666666667)"><path fill="#f7941d" d="M59.451,13.392L52.259,6.2c-0.732-0.731-1.919-0.732-2.651,0L20.435,35.373l-9.977-9.977 c-0.703-0.703-1.948-0.703-2.651,0L0.55,32.654c-0.732,0.732-0.732,1.92,0,2.652l18.493,18.494c0.352,0.352,0.829,0.549,1.326,0.549 s0.975-0.197,1.326-0.549l37.756-37.757C59.803,15.692,60,15.215,60,14.718C60,14.22,59.803,13.744,59.451,13.392z M20.369,49.822 L4.527,33.98l4.604-4.605l9.977,9.975c0.732,0.732,1.919,0.732,2.651,0l29.173-29.172l4.541,4.54L20.369,49.822z"></path></g></svg>